<svg viewBox="0 0 17 20" fill="none" xmlns="http://www.w3.org/2000/svg">
<path d="M16.2875 8.73342L2.78 0.470292C2.55227 0.330842 2.29144 0.254713 2.02445 0.249769C1.75746 0.244825 1.49399 0.311244 1.26125 0.442167C1.03073 0.571057 0.838696 0.759022 0.704904 0.986734C0.571111 1.21445 0.500385 1.47368 0.5 1.73779V18.2622C0.501737 18.6583 0.660719 19.0376 0.941997 19.3166C1.22328 19.5956 1.60383 19.7515 2 19.75C2.27652 19.7499 2.54767 19.6736 2.78375 19.5297L16.2875 11.2665C16.5046 11.1342 16.684 10.9483 16.8084 10.7267C16.9329 10.5051 16.9983 10.2551 16.9983 10.0009C16.9983 9.74671 16.9329 9.49678 16.8084 9.27514C16.684 9.0535 16.5046 8.86759 16.2875 8.73529V8.73342ZM2 18.2444V1.74998L15.4841 9.99998L2 18.2444Z" fill="white"/>
</svg>
